HIERARCHY
ROOT Hips
{
	OFFSET 0.000000 0.000000 0.000000
	CHANNELS 6 Xposition Yposition Zposition Xrotation Yrotation Zrotation
	JOINT LeftUpLeg_virtual
	{
		OFFSET 0.000000 0.000000 0.000000
		CHANNELS 3 Xrotation Yrotation Zrotation
		JOINT LeftUpLeg
		{
			OFFSET 10.205400 -3.823500 0.155100
			CHANNELS 3 Xrotation Yrotation Zrotation
			JOINT LeftLeg
			{
				OFFSET 0.708757 -12.982077 0.567790
				CHANNELS 3 Xrotation Yrotation Zrotation
				JOINT LeftFoot
				{
					OFFSET -0.708756 -10.717838 -2.184338
					CHANNELS 3 Xrotation Yrotation Zrotation
					JOINT LeftToeBase
					{
						OFFSET 0.108149 -7.191104 7.560241
						CHANNELS 3 Xrotation Yrotation Zrotation
						JOINT LeftToe_End
						{
							OFFSET 0.070230 0.081724 4.490308
							CHANNELS 3 Xrotation Yrotation Zrotation
							End Site
							{
								OFFSET 0 0 0
							}
						}
					}
				}
			}
		}
	}
	JOINT RightUpLeg_virtual
	{
		OFFSET 0.000000 0.000000 0.000000
		CHANNELS 3 Xrotation Yrotation Zrotation
		JOINT RightUpLeg
		{
			OFFSET -10.205400 -3.823500 0.005500
			CHANNELS 3 Xrotation Yrotation Zrotation
			JOINT RightLeg
			{
				OFFSET -0.708756 -12.982134 0.610632
				CHANNELS 3 Xrotation Yrotation Zrotation
				JOINT RightFoot
				{
					OFFSET 0.708754 -10.717769 -1.945823
					CHANNELS 3 Xrotation Yrotation Zrotation
					JOINT RightToeBase
					{
						OFFSET -0.108140 -7.191069 7.372968
						CHANNELS 3 Xrotation Yrotation Zrotation
						JOINT RightToe_End
						{
							OFFSET -0.070227 0.081735 4.479403
							CHANNELS 3 Xrotation Yrotation Zrotation
							End Site
							{
								OFFSET 0 0 0
							}
						}
					}
				}
			}
		}
	}
	JOINT Spine_virtual
	{
		OFFSET 0.000000 0.000000 0.000000
		CHANNELS 3 Xrotation Yrotation Zrotation
		JOINT Spine
		{
			OFFSET 0.000000 6.876099 0.125700
			CHANNELS 3 Xrotation Yrotation Zrotation
			JOINT Spine1
			{
				OFFSET 0.000000 5.730043 0.104720
				CHANNELS 3 Xrotation Yrotation Zrotation
				JOINT Spine1_split
				{
					OFFSET 0.000000 5.730043 0.104720
					CHANNELS 3 Xrotation Yrotation Zrotation
					JOINT Spine2
					{
						OFFSET 0.000000 5.730043 0.104720
						CHANNELS 3 Xrotation Yrotation Zrotation
						JOINT Neck_virtual
						{
							OFFSET 0.000000 0.000000 0.000000
							CHANNELS 3 Xrotation Yrotation Zrotation
							JOINT Neck
							{
								OFFSET 0.000000 10.314075 0.188496
								CHANNELS 3 Xrotation Yrotation Zrotation
								JOINT Head
								{
									OFFSET 0.000000 7.643700 -2.377400
									CHANNELS 3 Xrotation Yrotation Zrotation
									JOINT HeadTop_End
									{
										OFFSET 0.000000 43.788605 -13.619600
										CHANNELS 3 Xrotation Yrotation Zrotation
										End Site
										{
											OFFSET 0 0 0
										}
									}
								}
							}
						}
						JOINT LeftShoulder_virtual
						{
							OFFSET 0.000000 0.000000 0.000000
							CHANNELS 3 Xrotation Yrotation Zrotation
							JOINT LeftShoulder
							{
								OFFSET 2.196100 4.412489 0.087492
								CHANNELS 3 Xrotation Yrotation Zrotation
								JOINT LeftShoulder_split
								{
									OFFSET 2.196100 4.412489 0.087492
									CHANNELS 3 Xrotation Yrotation Zrotation
									JOINT LeftArm
									{
										OFFSET 8.771219 -2.981674 -0.026999
										CHANNELS 3 Xrotation Yrotation Zrotation
										JOINT LeftForeArm
										{
											OFFSET 8.512804 0.000000 -0.000000
											CHANNELS 3 Xrotation Yrotation Zrotation
											JOINT LeftHand
											{
												OFFSET 18.484802 0.000000 -0.000000
												CHANNELS 3 Xrotation Yrotation Zrotation
												End Site
												{
													OFFSET 0 0 0
												}
											}
										}
									}
								}
							}
						}
						JOINT RightShoulder_virtual
						{
							OFFSET 0.000000 0.000000 0.000000
							CHANNELS 3 Xrotation Yrotation Zrotation
							JOINT RightShoulder
							{
								OFFSET -2.196100 4.412496 0.070690
								CHANNELS 3 Xrotation Yrotation Zrotation
								JOINT RightShoulder_split
								{
									OFFSET -2.196100 4.412496 0.070690
									CHANNELS 3 Xrotation Yrotation Zrotation
									JOINT RightArm
									{
										OFFSET -8.771282 -2.981682 -0.094208
										CHANNELS 3 Xrotation Yrotation Zrotation
										JOINT RightForeArm
										{
											OFFSET -8.494598 0.000000 0.000000
											CHANNELS 3 Xrotation Yrotation Zrotation
											JOINT RightHand
											{
												OFFSET -18.483803 0.000000 0.000001
												CHANNELS 3 Xrotation Yrotation Zrotation
												End Site
												{
													OFFSET 0 0 0
												}
											}
										}
									}
								}
							}
						}
					}
				}
			}
		}
	}
}
MOTION
Frames: 11
Frame Time: 0.03333333
4.909710 49.977139 -6.321590 0.000000 0.000000 0.000000 -90.547859 -5.836563 -0.940652 12.351081 32.534134 7.451016 1.228577 -20.361234 -11.942765 14.074466 34.678472 -14.210615 10.700339 -0.041681 8.380831 0.000000 0.000000 0.000000 -88.608030 -2.709488 1.597112 11.655647 -12.416413 -9.111615 -4.654750 15.163809 -12.544632 18.060383 -31.175285 25.959198 4.913354 -3.192313 -37.794469 0.000000 0.000000 0.000000 -92.583631 2.945370 5.819708 0.526365 -2.435498 -0.528586 5.352617 -5.546313 2.327346 0.155660 0.769840 -0.159930 0.000000 0.000000 0.000000 3.955535 -2.860974 1.093080 -25.806031 -0.790027 -3.365727 1.301111 -59.794550 21.136048 0.000000 0.000000 0.000000 3.335484 -4.574334 0.192210 -0.876808 -0.406505 -8.022543 3.417934 5.678063 -5.012434 43.997309 -23.500980 -43.804202 17.003411 -70.950380 12.187065 0.000000 0.000000 0.000000 6.332811 -3.137541 1.541268 -3.809838 -2.084520 15.777732 7.826674 5.069846 0.463884 43.704656 37.305858 34.219692 -75.458817 88.752748 66.434190 0.000000 0.000000 0.000000 
4.907917 49.983841 -6.298332 0.000000 0.000000 0.000000 -90.551854 -5.712232 -0.734643 12.405693 32.327507 7.419132 1.168661 -20.350024 -11.955665 14.036101 34.841321 -14.011105 10.810513 -0.025737 8.280192 0.000000 0.000000 0.000000 -88.664660 -2.784367 1.632665 11.490286 -12.388290 -9.103477 -4.303852 15.367362 -12.625797 17.865519 -31.130274 25.835418 5.109107 -3.238959 -37.825939 0.000000 0.000000 0.000000 -92.698849 2.703854 5.848565 0.455595 -2.539241 -0.536459 5.356818 -5.384788 2.426202 0.063363 0.771874 -0.174173 0.000000 0.000000 0.000000 4.020252 -2.692486 1.074971 -25.929543 -0.919883 -3.303500 1.232514 -60.144822 20.908049 0.000000 0.000000 0.000000 3.564519 -4.424415 0.333209 -0.971616 -0.802413 -8.011539 3.691904 6.050299 -4.952184 43.739845 -23.279935 -43.815025 17.076407 -70.190876 12.129263 0.000000 0.000000 0.000000 6.529419 -2.962579 1.525496 -3.831796 -2.150778 15.329395 8.312272 5.768162 0.007741 41.811495 38.237786 33.973368 -112.664189 89.041816 103.749214 0.000000 0.000000 0.000000 
4.900723 49.998280 -6.258291 0.000000 0.000000 0.000000 -90.482890 -5.687295 -0.523200 12.436779 32.104867 7.383486 1.042850 -20.258817 -12.008505 14.040614 35.084605 -13.918513 10.877430 -0.011480 8.140037 0.000000 0.000000 0.000000 -88.561606 -2.855560 1.745602 11.117654 -12.303657 -9.220318 -3.838948 15.729724 -12.748628 17.834884 -30.894725 25.793783 5.090012 -3.280233 -38.024244 0.000000 0.000000 0.000000 -92.618246 2.531234 5.990691 0.417400 -2.695463 -0.701710 5.387810 -5.065920 2.480466 0.013300 0.770583 -0.175282 0.000000 0.000000 0.000000 4.245004 -2.366572 1.098407 -25.757847 -0.924718 -3.443145 0.065569 -60.601017 20.238602 0.000000 0.000000 0.000000 3.794638 -4.111392 0.474433 -1.015645 -1.288201 -7.909338 3.644970 6.101117 -5.207569 43.140626 -22.607182 -43.820643 16.535476 -70.198055 11.783196 0.000000 0.000000 0.000000 6.727537 -2.706891 1.457582 -3.863510 -2.322980 14.715349 9.001884 5.890352 -0.013926 37.790897 39.698077 34.714443 -174.648975 88.797152 165.863522 0.000000 0.000000 0.000000 
4.892043 50.019352 -6.226254 0.000000 0.000000 0.000000 -90.368006 -5.843433 -0.399170 12.417701 31.875045 7.348228 0.918988 -20.171980 -12.083680 14.317760 35.279037 -14.098826 10.832800 -0.001253 8.006787 0.000000 0.000000 0.000000 -88.351311 -2.946532 1.920337 10.597121 -12.279278 -9.415279 -3.298482 16.049742 -12.905156 17.918622 -30.565097 25.723117 4.841765 -3.318223 -38.348633 0.000000 0.000000 0.000000 -92.316311 2.453085 6.220709 0.525757 -2.863093 -1.026069 5.508687 -4.593479 2.486586 0.020671 0.713374 -0.182874 0.000000 0.000000 0.000000 4.639811 -1.888030 1.152902 -25.299746 -0.928263 -3.608724 -2.005523 -61.164358 19.293558 0.000000 0.000000 0.000000 4.041189 -3.618779 0.596111 -0.985431 -1.786412 -7.695841 3.433556 5.724884 -5.581357 42.195590 -21.534775 -43.697064 15.273201 -70.865767 11.022218 0.000000 0.000000 0.000000 6.945667 -2.338370 1.367038 -3.921226 -2.480894 14.104503 9.784499 5.412264 0.348755 31.705335 41.316128 36.920830 154.643706 87.540506 -163.266492 0.000000 0.000000 0.000000 
4.883201 50.050262 -6.190180 0.000000 0.000000 0.000000 -90.200592 -6.144483 -0.336316 12.361795 31.677656 7.301418 0.822831 -20.098498 -12.153032 14.853950 35.376275 -14.467717 10.723763 0.004110 7.919820 0.000000 0.000000 0.000000 -88.111640 -3.146357 2.059446 9.983905 -12.425244 -9.613394 -2.908007 16.113004 -13.060181 17.991854 -30.297039 25.477611 4.666684 -3.439359 -38.733579 0.000000 0.000000 0.000000 -91.876290 2.413548 6.442867 0.872766 -2.966058 -1.484270 5.795444 -3.953472 2.465648 0.051437 0.617730 -0.187811 0.000000 0.000000 0.000000 5.171788 -1.246687 1.229059 -24.638809 -1.112956 -3.601927 -4.511459 -61.879998 18.329526 0.000000 0.000000 0.000000 4.347238 -2.939980 0.680640 -0.864978 -2.196786 -7.373347 3.212371 4.714428 -5.855762 41.000219 -20.285078 -43.292331 13.218937 -71.834015 9.686772 0.000000 0.000000 0.000000 7.233049 -1.813371 1.283040 -3.985553 -2.503692 13.678431 10.295912 4.735018 0.742116 23.788487 42.464901 40.795552 145.329924 85.689429 -153.762188 0.000000 0.000000 0.000000 
4.880531 50.094372 -6.157448 0.000000 0.000000 0.000000 -89.946536 -6.509137 -0.308624 12.290137 31.519896 7.251522 0.741882 -20.000843 -12.169157 15.431293 35.383372 -14.826777 10.658351 0.014382 7.873716 0.000000 0.000000 0.000000 -87.838705 -3.456735 2.122584 9.321021 -12.740909 -9.775061 -2.751399 15.921330 -13.175195 17.817903 -30.148769 24.984970 4.809435 -3.703259 -39.116695 0.000000 0.000000 0.000000 -91.372365 2.358457 6.590751 1.527355 -2.945140 -2.002549 6.297603 -3.134342 2.428422 0.108624 0.537840 -0.199594 0.000000 0.000000 0.000000 5.816159 -0.451906 1.299498 -23.806037 -1.654564 -3.303462 -6.834206 -62.916820 17.600477 0.000000 0.000000 0.000000 4.769541 -2.094770 0.716526 -0.635796 -2.409463 -6.960049 3.116399 3.319860 -5.782153 39.564789 -19.426448 -42.436570 10.311740 -72.766786 7.628210 0.000000 0.000000 0.000000 7.648112 -1.093835 1.206067 -4.055418 -2.209271 13.488457 10.561416 4.286344 1.087419 14.776016 42.592223 46.007649 143.351751 83.484583 -151.596267 0.000000 0.000000 0.000000 
4.881915 50.148354 -6.151766 0.000000 0.000000 0.000000 -89.629096 -6.819377 -0.288020 12.213940 31.360855 7.213780 0.618690 -19.924780 -12.117777 15.840076 35.281967 -15.073611 10.672213 0.031989 7.873263 0.000000 0.000000 0.000000 -87.517017 -3.760755 2.167835 8.716693 -13.113751 -9.899531 -2.695342 15.632211 -13.221597 17.345633 -30.064013 24.229049 5.365993 -4.076944 -39.453331 0.000000 0.000000 0.000000 -90.863120 2.271418 6.648441 2.454696 -2.774165 -2.516148 7.012687 -2.190454 2.380545 0.132343 0.487028 -0.192124 0.000000 0.000000 0.000000 6.555211 0.453995 1.322433 -22.890088 -2.518170 -2.735745 -8.316842 -64.329283 17.444455 0.000000 0.000000 0.000000 5.358743 -1.130357 0.692129 -0.296872 -2.262372 -6.468165 3.310238 1.771491 -5.584280 37.788725 -19.545169 -40.986640 6.752650 -73.349108 4.952028 0.000000 0.000000 0.000000 8.242026 -0.216804 1.097493 -4.129342 -1.538581 13.475010 11.004919 4.293441 1.426975 5.362411 41.315555 51.848881 145.662335 80.941799 -153.700990 0.000000 0.000000 0.000000 
4.889886 50.202129 -6.180265 0.000000 0.000000 0.000000 -89.250970 -7.005182 -0.273191 12.122529 31.175271 7.208372 0.405604 -19.884591 -12.010512 15.877625 35.094916 -15.084466 10.803332 0.050171 7.891892 0.000000 0.000000 0.000000 -87.184018 -3.962440 2.193582 8.250673 -13.395564 -9.970153 -2.661112 15.389193 -13.165734 16.795423 -29.919172 23.405549 6.145421 -4.448136 -39.733430 0.000000 0.000000 0.000000 -90.418509 2.140388 6.556757 3.538429 -2.440991 -2.958388 7.926867 -1.197539 2.307593 0.113200 0.517873 -0.164091 0.000000 0.000000 0.000000 7.384661 1.403057 1.272102 -21.941134 -3.636299 -2.041457 -8.667808 -65.787371 17.886327 0.000000 0.000000 0.000000 6.156040 -0.140808 0.593504 0.127108 -1.627186 -5.921646 3.727404 0.284549 -5.252341 35.687602 -21.026459 -38.839498 2.790947 -73.173797 1.863984 0.000000 0.000000 0.000000 9.027116 0.730211 0.929822 -4.156503 -0.463366 13.540458 11.395596 4.549981 2.023900 -3.100490 38.724908 57.208937 150.406530 78.112489 -158.227985 0.000000 0.000000 0.000000 
4.904894 50.241554 -6.245365 0.000000 0.000000 0.000000 -88.846800 -7.082989 -0.323467 11.969095 30.959970 7.249506 0.177666 -19.870183 -11.848003 15.604240 34.836379 -14.888749 11.015072 0.067652 7.865826 0.000000 0.000000 0.000000 -86.888585 -4.008761 2.172738 7.923348 -13.516275 -9.998629 -2.617404 15.353051 -13.015834 16.457163 -29.628179 22.901814 6.694919 -4.665613 -39.962423 0.000000 0.000000 0.000000 -90.086179 1.993328 6.327510 4.654572 -2.006275 -3.272068 8.991375 -0.275874 2.194601 0.077554 0.611166 -0.150970 0.000000 0.000000 0.000000 8.306465 2.261801 1.129029 -20.931296 -4.879000 -1.380649 -7.676776 -67.030889 18.923234 0.000000 0.000000 0.000000 7.128326 0.736913 0.403382 0.618764 -0.542297 -5.339817 4.535772 -1.090700 -4.788922 33.361274 -23.805603 -36.086027 -0.947832 -71.889046 -1.065477 0.000000 0.000000 0.000000 9.991165 1.609819 0.696757 -4.120286 0.874954 13.529541 11.323926 4.868579 2.965838 -9.657944 35.530856 61.265260 155.990142 75.177133 -163.622509 0.000000 0.000000 0.000000 
4.928303 50.262199 -6.330694 0.000000 0.000000 0.000000 -88.505154 -7.064125 -0.468367 11.666868 30.731821 7.380659 0.038031 -19.854849 -11.639427 15.209462 34.556683 -14.563083 11.235725 0.074993 7.747055 0.000000 0.000000 0.000000 -86.685052 -3.876605 2.098956 7.775571 -13.487614 -9.945456 -2.614337 15.515902 -12.820121 16.389497 -29.307386 22.797367 6.740759 -4.667148 -40.106673 0.000000 0.000000 0.000000 -89.881041 1.923975 6.038286 5.669149 -1.544651 -3.453605 10.152437 0.468230 2.039162 0.049738 0.694910 -0.140292 0.000000 0.000000 0.000000 9.305543 2.938909 0.910088 -19.821784 -6.048236 -0.953056 -5.429632 -67.948976 20.470391 0.000000 0.000000 0.000000 8.247416 1.410445 0.140589 1.144118 0.891049 -4.720898 5.426911 -2.323361 -4.173608 31.018966 -27.448092 -33.024221 -3.698000 -69.544645 -3.145456 0.000000 0.000000 0.000000 11.108210 2.302822 0.412669 -4.013427 2.251850 13.444556 10.951343 5.197807 4.444581 -13.826593 32.641423 63.730999 161.422956 72.571730 -168.979263 0.000000 0.000000 0.000000 
4.971238 50.267372 -6.427067 0.000000 0.000000 0.000000 -88.206347 -7.012686 -0.715614 11.195153 30.508481 7.582389 0.092392 -19.801719 -11.386485 14.851418 34.330662 -14.158066 11.432709 0.069282 7.533841 0.000000 0.000000 0.000000 -86.522924 -3.573360 2.007223 7.796284 -13.437954 -9.839813 -2.644837 15.739201 -12.627945 16.444432 -29.158433 22.905850 6.594974 -4.603782 -40.039634 0.000000 0.000000 0.000000 -89.778042 1.962083 5.725886 6.501914 -1.143755 -3.529174 11.348210 0.980378 1.848097 0.021591 0.760767 -0.143772 0.000000 0.000000 0.000000 10.340667 3.373415 0.643802 -18.667921 -7.063861 -0.796906 -2.262165 -68.392303 22.315580 0.000000 0.000000 0.000000 9.456290 1.818908 -0.159558 1.657868 2.534347 -4.026974 6.408523 -3.381881 -3.287685 28.804332 -31.440577 -30.021810 -5.269314 -66.658398 -4.275396 0.000000 0.000000 0.000000 12.312324 2.749490 0.126757 -3.834410 3.513321 13.364863 10.659054 5.738185 6.092969 -15.678131 30.853177 64.882412 166.223418 70.793272 -173.894157 0.000000 0.000000 0.000000 
